<?xml version="1.0" standalone="no"?> <!DOCTYPE svg PUBLIC "-//W3C//DTD SVG 1.0//EN" "http://www.w3.org/TR/2001/REC-SVG-20010904/DTD/svg10.dtd" > <svg xmlns="http://www.w3.org/2000/svg" width="100%" height="100%">
<defs >
<font id="frakturn" horiz-adv-x="705" ><font-face
    font-family="Fraktur"
    units-per-em="2048"
    panose-1="3 2 7 2 4 5 8 4 5 4"
    ascent="2017"
    descent="-483"
    alphabetic="0" />
<missing-glyph horiz-adv-x="1229" d="M102 -362V1444H1126V-362H102ZM217 -248H1012V1329H217V-248Z" />
<glyph unicode=" " glyph-name="space" horiz-adv-x="530" />
<glyph unicode="!" glyph-name="exclam" horiz-adv-x="530" d="M242 461L178 1215Q177 1230 174 1258Q170 1305 170 1319Q170 1377 194 1406T266 1436Q314 1436 337 1407T360 1319Q360 1309 358 1281T352 1214L289 461H242ZM408 72Q356 58 328 30T289 -47H242Q231
2 203 30T123 72V119Q175 133 203 161T242 238H289Q299 189 327 161T408 119V72Z" />
<glyph unicode="&quot;" glyph-name="quotedbl" horiz-adv-x="678" d="M518 864H487L422 1321Q422 1323 421 1327Q418 1349 418 1360Q418 1409 440 1435T504 1462Q544 1462 566 1436T588 1362Q588 1348 588 1339T586 1321L518 864ZM190 864H158L94 1321Q92 1338
91 1346T90 1362Q90 1410 112 1436T174 1462Q215 1462 237 1436T260 1362Q260 1353 257 1328Q256 1323 256 1321L190 864Z" />
<glyph unicode="#" glyph-name="numbersign" horiz-adv-x="1575" d="M700 868L600 582H889L991 868H700ZM778 1456H911L743 985H1030L1198 1456H1329L1163 985H1470L1430 868H1120L1020 582H1352L1309 467H979L813 -2H680L846 467H559L393 -2H262L428 467H104L147
582H469L569 868H221L264 985H612L778 1456Z" />
<glyph unicode="$" glyph-name="dollar" horiz-adv-x="1063" d="M418 1350Q350 1326 312 1273T274 1149Q274 1084 309 1032T418 934V1350ZM569 1364Q557 1365 546 1365T524 1366Q514 1366 499 1365T461 1360V909L569 838V1364ZM569 614L461 682V27Q471 27 484
26T500 25Q530 25 544 25T569 27V614ZM612 35Q704 58 756 128T809 297Q809 379 762 448T612 586V35ZM612 -14V-238H569V-20Q561 -21 545 -22Q516 -25 508 -25Q505 -25 489 -23T461 -20V-238H418V-16Q271 7 175 91T78 274Q78 322 103 347T176 373Q218 373 243 348T268
281Q268 274 266 245T264 190Q264 142 308 97T418 35V713Q259 806 194 888T129 1073Q129 1195 207 1284T418 1403V1565H461V1409Q464 1409 472 1410Q513 1413 532 1413Q534 1413 538 1413Q555 1411 569 1411V1565H612V1407Q763 1379 849 1305T936 1130Q936 1084
912 1059T840 1034Q794 1034 771 1060T748 1139Q748 1161 750 1188T752 1223Q752 1264 714 1300T612 1356V811Q816 682 885 592T954 383Q954 234 863 128T612 -14Z" />
<glyph unicode="%" glyph-name="percent" horiz-adv-x="1395" d="M920 367Q920 179 950 100T1051 20Q1120 20 1150 98T1180 367Q1180 557 1150 635T1051 713Q981 713 951 634T920 367ZM1049 758Q1161 758 1242 645T1323 367Q1323 202 1242 89T1049 -25Q938 -25
858 89T778 367Q778 531 858 644T1049 758ZM213 1020Q213 833 243 755T344 676Q414 676 443 753T473 1020Q473 1211 443 1289T344 1368Q274 1368 244 1288T213 1020ZM342 1413Q455 1413 535 1300T616 1020Q616 855 536 743T342 631Q232 631 152 743T72 1020Q72
1184 152 1298T342 1413ZM381 -25H281L1012 1413H1114L381 -25Z" />
<glyph unicode="&amp;" glyph-name="ampersand" horiz-adv-x="1298" d="M729 160L385 672Q299 623 255 549T211 379Q211 245 298 150T510 55Q580 55 636 82T729 160ZM485 797Q574 865 608 925T643 1065Q643 1152 602 1201T489 1251Q425 1251 386 1209T346 1096Q346
1037 376 970T485 797ZM1217 197L1264 186Q1223 73 1153 13T991 -47Q932 -47 879 -10T760 119Q685 30 604 -8T412 -47Q252 -47 150 51T47 301Q47 414 123 514T358 711Q288 826 260 897T231 1024Q231 1145 307 1222T502 1300Q607 1300 675 1236T743 1075Q743 997
686 920T508 756L817 293Q828 325 848 386Q966 750 1118 750Q1158 750 1192 736T1247 694Q1234 667 1218 637T1180 571L1147 578Q1144 602 1126 617T1081 633Q986 633 907 408Q872 309 848 252Q910 153 960 111T1063 68Q1113 68 1148 97T1217 197Z" />
<glyph unicode="&apos;" glyph-name="quotesingle" horiz-adv-x="348" d="M190 864H158L92 1321Q91 1329 91 1337T90 1360Q90 1410 111 1436T174 1462Q215 1462 237 1436T260 1362Q260 1353 257 1328Q256 1323 256 1321L190 864Z" />
<glyph unicode="(" glyph-name="parenleft" horiz-adv-x="541" d="M516 1427Q384 1269 314 1062T244 623Q244 391 314 185T516 -180V-238Q307 -76 196 146T84 623Q84 875 197 1101T516 1485V1427Z" />
<glyph unicode=")" glyph-name="parenright" horiz-adv-x="541" d="M25 -180Q156 -22 225 183T295 623Q295 856 226 1063T25 1427V1483Q233 1321 345 1099T457 623Q457 371 345 147T25 -238V-180Z" />
<glyph unicode="*" glyph-name="asterisk" horiz-adv-x="1024" d="M565 1190L838 1305L852 1280L616 1100L852 922L838 895L563 1010L526 717H498L459 1012L186 895L172 922L408 1100L172 1280L186 1305L461 1190L498 1485H526L565 1190Z" />
<glyph unicode="+" glyph-name="plus" horiz-adv-x="1706" d="M795 1221H913V670H1452V553H913V0H795V553H254V670H795V1221Z" />
<glyph unicode="," glyph-name="comma" horiz-adv-x="530" d="M90 -346L195 121Q209 186 233 214T299 242Q333 242 353 224T373 174Q373 151 345 93L342 86L131 -346H90Z" />
<glyph unicode="-" glyph-name="hyphen" horiz-adv-x="541" d="M47 412V506L494 801V709L47 412ZM47 178V270L494 567V473L47 178Z" />
<glyph unicode="." glyph-name="period" horiz-adv-x="530" d="M408 72Q356 58 328 30T289 -47H242Q231 2 203 30T123 72V119Q175 133 203 161T242 238H289Q299 189 327 161T408 119V72Z" />
<glyph unicode="/" glyph-name="slash" horiz-adv-x="569" d="M-49 -190L537 1485H618L31 -190H-49Z" />
<glyph unicode="0" glyph-name="zero" horiz-adv-x="1063" d="M530 1413Q708 1413 837 1206T967 694Q967 390 838 183T530 -25Q353 -25 224 182T94 694Q94 1000 223 1206T530 1413ZM289 694Q289 326 344 176T530 25Q660 25 716 175T772 694Q772 1063 716 1214T530
1366Q401 1366 345 1215T289 694Z" />
<glyph unicode="1" glyph-name="one" horiz-adv-x="1063" d="M653 207V143Q653 90 679 69T774 47H854V0H303V47H383Q452 47 477 68T502 150V207V1161Q502 1214 498 1245T487 1276Q480 1276 465 1264T424 1227L225 1036L193 1071L502 1370Q508 1376 517 1385Q544
1413 594 1413H653V207Z" />
<glyph unicode="2" glyph-name="two" horiz-adv-x="1063" d="M72 0V31Q111 95 181 174T383 381Q606 598 678 718T750 961Q750 1092 668 1177T457 1262Q330 1262 241 1182T123 963H78Q101 1170 220 1291T518 1413Q685 1413 797 1302T909 1022Q909 903 843 789T618
530Q599 513 558 476Q348 290 242 154H637Q761 154 811 191T909 354L948 346Q917 263 894 177T854 0H72Z" />
<glyph unicode="3" glyph-name="three" horiz-adv-x="1063" d="M309 735Q514 790 618 875T723 1071Q723 1171 648 1239T457 1307Q377 1307 303 1263T164 1133L127 1151Q200 1288 297 1350T530 1413Q680 1413 781 1329T883 1126Q883 1011 805 932T530 772H561Q737
772 851 673T965 416Q965 227 834 101T500 -25Q329 -25 213 59T96 254Q96 301 121 328T186 356Q229 356 255 333T281 272Q281 252 278 224T274 188Q274 117 337 71T500 25Q640 25 715 103T791 328Q791 498 697 600T449 702Q414 702 381 699T315 690L309 735Z" />
<glyph unicode="4" glyph-name="four" horiz-adv-x="1063" d="M127 522H578L584 1264L127 522ZM727 207V143Q727 90 753 69T848 47H928V0H377V47H457Q526 47 550 68T575 150V207V403H66V522L612 1407L727 1413V522H965V403H727V207Z" />
<glyph unicode="5" glyph-name="five" horiz-adv-x="1063" d="M162 696Q187 766 206 952T238 1413H274Q327 1386 403 1373T582 1360Q676 1360 749 1373T883 1413H926Q857 1306 743 1250T477 1194Q423 1194 373 1202T274 1227Q264 1082 255 979T236 799Q296 849
367 873T522 897Q718 897 837 774T956 449Q956 244 821 110T481 -25Q319 -25 206 61T92 258Q92 308 117 335T188 362Q232 362 254 340T276 272Q276 255 268 223T260 172Q260 103 318 64T481 25Q630 25 710 117T791 381Q791 563 696 683T459 803Q394 803 326 772T197
682L162 696Z" />
<glyph unicode="6" glyph-name="six" horiz-adv-x="1063" d="M561 25Q677 25 739 113T801 369Q801 553 726 668T532 784Q426 784 362 690T297 436Q297 252 371 139T561 25ZM285 648Q329 754 418 818T608 883Q771 883 870 773T969 483Q969 277 847 126T557 -25Q356
-25 226 147T96 592Q96 747 140 902T262 1184Q334 1299 420 1356T610 1413Q732 1413 819 1344T907 1180Q907 1139 885 1117T821 1094Q776 1094 755 1116T733 1186V1245Q733 1296 693 1329T588 1362Q440 1362 362 1204T283 743Q283 705 283 685T285 648Z" />
<glyph unicode="7" glyph-name="seven" horiz-adv-x="1063" d="M374 -60Q359 -14 352 34T344 135Q344 278 402 437T582 782L877 1237H406Q304 1237 253 1194T160 1030H117Q155 1147 182 1239T229 1413H266Q271 1399 282 1394T332 1389H997V1352Q951 1273 863 1129Q516
561 516 313Q516 233 532 163T584 12L374 -60Z" />
<glyph unicode="8" glyph-name="eight" horiz-adv-x="1063" d="M588 823Q698 864 751 932T805 1102Q805 1224 729 1295T520 1366Q413 1366 346 1310T279 1165Q279 1071 359 982T588 823ZM432 707Q324 658 267 573T209 377Q209 221 302 123T543 25Q664 25 741 97T819
283Q819 405 735 499T432 707ZM387 733Q271 793 208 885T145 1085Q145 1231 252 1322T530 1413Q700 1413 810 1325T920 1108Q920 1004 849 925T637 795Q807 704 889 596T971 354Q971 193 845 84T526 -25Q342 -25 216 85T90 354Q90 466 166 563T387 733Z" />
<glyph unicode="9" glyph-name="nine" horiz-adv-x="1063" d="M502 1364Q385 1364 323 1276T260 1022Q260 836 335 720T528 604Q635 604 699 698T764 952Q764 1137 691 1250T502 1364ZM778 743Q731 633 642 570T444 506Q289 506 191 618T92 909Q92 1115 215 1264T504
1413Q704 1413 835 1242T967 803Q967 647 922 484T801 203Q729 89 640 32T444 -25Q326 -25 241 46T156 211Q156 252 178 274T242 297Q290 297 310 273T330 180Q330 100 364 64T473 27Q622 27 701 187T780 649Q780 687 780 707T778 743Z" />
<glyph unicode=":" glyph-name="colon" horiz-adv-x="530" d="M408 72Q356 58 328 30T289 -47H242Q231 2 203 30T123 72V119Q175 133 203 161T242 238H289Q299 189 327 161T408 119V72ZM408 797Q356 783 328 755T289 678H242Q231 726 203 754T123 797V844Q175
858 203 886T242 963H289Q299 914 327 886T408 844V797Z" />
<glyph unicode=";" glyph-name="semicolon" horiz-adv-x="530" d="M418 797Q367 783 340 755T301 678H252Q241 727 214 755T135 797V844Q186 858 213 886T252 963H301Q312 914 339 886T418 844V797ZM88 -346L193 121Q207 186 231 214T297 242Q331 242 351 224T371
174Q371 151 343 93L340 86L127 -346H88Z" />
<glyph unicode="&lt;" glyph-name="less" horiz-adv-x="1706" d="M1442 1145V1018L442 610L1442 205V76L264 559V662L1442 1145Z" />
<glyph unicode="=" glyph-name="equal" horiz-adv-x="1706" d="M254 477H1452V360H254V477ZM254 860H1452V743H254V860Z" />
<glyph unicode="&gt;" glyph-name="greater" horiz-adv-x="1706" d="M264 1145L1442 662V559L264 76V205L1264 610L264 1018V1145Z" />
<glyph unicode="?" glyph-name="question" horiz-adv-x="692" d="M256 387Q240 432 233 469T225 545Q225 627 256 700T362 862L379 882Q535 1063 535 1165Q535 1250 477 1312T342 1374Q296 1374 263 1350T211 1280Q207 1269 199 1244Q168 1145 102 1145Q70 1145
49 1167T27 1221Q27 1312 102 1375T287 1438Q427 1438 524 1333T621 1077Q621 984 584 904T430 698Q420 687 400 667Q289 550 289 469Q289 455 291 435T299 387H256ZM410 72Q358 58 330 30T291 -47H244Q233 2 205 30T125 72V119Q177 133 205 161T244 238H291Q301
189 329 161T410 119V72Z" />
<glyph unicode="@" glyph-name="at" horiz-adv-x="2019" d="M1190 336Q1128 230 1051 178T881 125Q756 125 680 217T604 461Q604 569 653 677T791 870Q856 934 935 970T1090 1006Q1177 1006 1233 957T1311 811L1364 991H1507L1337 381Q1337 379 1336 376Q1319
317 1319 272Q1319 225 1344 198T1413 170Q1447 170 1492 187T1577 236Q1699 326 1764 467T1829 782Q1829 922 1779 1034T1626 1237Q1536 1316 1410 1359T1143 1403Q956 1403 802 1345T526 1169Q396 1043 329 876T262 506Q262 331 319 202T500 -33Q614 -130 761
-179T1081 -229Q1244 -229 1398 -177T1694 -23L1724 -59Q1576 -169 1411 -225T1069 -281Q882 -281 727 -235T453 -96Q302 17 224 178T145 537Q145 741 231 918T481 1231Q612 1341 772 1396T1116 1452Q1463 1452 1669 1265T1876 766Q1876 609 1818 469T1655 233Q1598
181 1532 153T1397 125Q1300 125 1248 177T1190 336ZM1098 965Q1044 965 999 934T907 834Q835 726 793 600T750 375Q750 282 790 228T899 174Q965 174 1025 218T1141 352Q1198 446 1232 554T1266 752Q1266 845 1219 905T1098 965Z" />
<glyph unicode="A" glyph-name="A" horiz-adv-x="1360" d="M1011 274Q891 186 699 88T453 -51L418 -25Q421 -22 426 -16Q446 3 446 10Q446 24 405 63T276 170Q215 218 191 231T145 244Q134 244 116 240T76 230L61 274Q403 372 552 521T702 907Q702 1090 618 1197T391
1305Q273 1305 194 1214T115 985Q115 847 196 759T428 645L414 602Q245 627 151 737T57 1022Q57 1221 168 1353T446 1485Q623 1485 736 1346T850 985Q850 782 730 623T362 336L555 172Q581 149 601 140T643 131Q685 131 785 186T1010 334V1178Q1010 1228 1005 1273T989
1364L1026 1376L1061 1268Q1076 1358 1147 1422T1294 1487Q1295 1487 1300 1488T1311 1489V1450Q1239 1417 1205 1346T1171 1155V342Q1171 255 1183 233T1227 211Q1245 211 1267 222T1319 258L1348 229Q1275 149 1218 79T1114 -57L1077 -45Q1078 -42 1080 -36Q1086
-17 1085 -6Q1085 0 1048 63T1010 229Q1010 247 1010 256T1011 274Z" />
<glyph unicode="B" glyph-name="B" horiz-adv-x="1688" d="M926 795Q1145 911 1228 960T1311 1022Q1311 1035 1277 1088T1180 1229Q1137 1287 1122 1302T1096 1317Q1080 1317 1014 1287T864 1208Q899 1123 915 1048T932 897Q932 880 929 845T926 795ZM451 354Q547
317 745 182T1085 47Q1238 47 1341 148T1444 399Q1444 562 1328 666T1032 770Q1005 770 977 765T918 750Q891 598 814 523T451 354ZM115 61Q103 84 97 106T90 150Q90 239 162 298T356 369Q567 422 661 534T756 844Q756 1069 660 1199T397 1329Q284 1329 205 1247T125
1042Q125 902 219 800T459 684L444 637Q280 657 178 774T76 1057Q76 1241 187 1363T469 1485Q586 1485 680 1427T844 1253Q883 1274 963 1315Q1175 1423 1278 1489L1306 1457Q1292 1445 1285 1434T1278 1413Q1278 1395 1306 1339T1378 1221Q1415 1168 1438 1144T1477
1120Q1485 1120 1495 1123T1522 1135L1542 1100L1223 905Q1401 869 1501 757T1602 483Q1602 353 1533 243T1346 72Q1241 19 1097 -14T827 -47Q770 -47 650 37Q629 52 619 59Q449 174 374 212T252 250Q202 250 169 221T135 150Q135 138 139 122T152 84L115 61Z"
/>
<glyph unicode="C" glyph-name="C" horiz-adv-x="1298" d="M645 197Q704 284 724 336T745 440Q745 481 728 540T666 700Q638 764 589 867Q516 1024 516 1059Q516 1083 650 1231Q679 1263 694 1280Q688 1353 641 1396T520 1440Q395 1440 319 1286T242 877Q242 626
349 445T645 197ZM1239 229L1264 199Q1175 117 1120 64T1017 -39Q986 -46 952 -49T881 -53Q533 -53 314 176T94 774Q94 1088 214 1287T518 1487Q601 1487 657 1445T735 1323L755 1345Q884 1485 903 1485Q921 1485 1010 1440T1141 1395Q1158 1395 1181 1417T1227
1479L1262 1454L1122 1253Q1118 1247 1109 1242T1092 1237Q1062 1237 964 1282T823 1327Q799 1327 736 1260T672 1159Q672 1124 770 887Q784 854 791 837Q800 814 819 770Q911 551 911 510Q911 485 827 373T688 178Q744 160 803 151T922 141Q1011 141 1086 162T1239
229Z" />
<glyph unicode="D" glyph-name="D" horiz-adv-x="1655" d="M129 170Q217 258 290 298T436 338Q454 338 470 337T501 332Q596 370 643 407T690 479Q690 506 668 551T590 684Q569 717 529 771Q444 889 444 944Q444 1038 580 1115T934 1214Q816 1275 695 1308T469
1341Q302 1341 199 1244T96 991Q96 898 144 831T283 729L266 686Q160 726 105 807T49 1004Q49 1213 200 1354T580 1495Q741 1495 895 1440T1176 1280Q1351 1138 1450 943T1550 551Q1550 405 1500 289T1346 82Q1264 9 1142 -42T938 -94Q887 -94 828 -70T690 6Q658
28 601 67Q390 213 319 213Q281 213 245 198T154 141L129 170ZM561 303Q628 264 740 186Q958 35 1079 35Q1234 35 1347 148T1460 422Q1460 627 1339 825T995 1176Q829 1165 721 1114T612 1004Q612 959 720 802Q741 772 752 756Q808 673 836 614T864 522Q864 458
609 328Q578 312 561 303Z" />
<glyph unicode="E" glyph-name="E" horiz-adv-x="1319" d="M1239 246L1266 211Q1191 152 1107 91T923 -37Q902 -42 874 -44T807 -47Q480 -47 287 181T94 797Q94 1114 212 1300T530 1487Q614 1487 676 1447T756 1356L757 1357Q864 1487 883 1487Q918 1487 1004
1463T1124 1438Q1144 1438 1160 1450T1194 1489L1231 1473Q1198 1415 1158 1336Q1122 1264 1112 1264Q1083 1264 985 1299T827 1335Q799 1335 752 1282T705 1198Q705 1176 752 1096T882 900L885 901Q1022 1014 1044 1063H1077Q1110 1020 1147 992T1231 948V911Q1198
890 1175 865T1135 805H1098Q1075 837 1043 861T965 907L905 858Q948 791 966 754T985 696Q985 681 964 616T932 496Q909 380 859 330T719 279Q625 279 561 332T465 489L510 504Q542 413 591 370T709 326Q783 326 828 371T874 487Q874 526 855 578T793 707Q730
817 645 949T559 1100Q559 1118 667 1250Q701 1293 721 1317Q703 1372 651 1406T535 1440Q399 1440 319 1299T238 915Q238 543 395 341T844 139Q954 139 1052 165T1239 246Z" />
<glyph unicode="F" glyph-name="F" horiz-adv-x="1133" d="M98 373Q123 424 162 452T248 481Q318 481 365 430T412 301Q412 213 325 88T238 -106Q238 -204 332 -274T563 -344Q696 -344 777 -265T858 -53Q858 104 657 364Q621 411 602 436Q590 453 566 484Q403
698 403 807Q403 906 487 1034T719 1288Q623 1329 534 1350T369 1372Q225 1372 133 1288T41 1075Q41 997 83 942T211 852L195 807Q94 848 43 917T-8 1083Q-8 1259 132 1380T481 1501Q671 1501 882 1406T1096 1311Q1107 1311 1122 1321T1159 1356L1188 1325L1022
1159Q1009 1146 1004 1143T993 1139Q982 1139 910 1186T764 1268Q655 1177 596 1084T537 913Q537 862 566 798T651 664Q729 717 769 755T831 834H870Q889 801 923 783T1008 758V711Q976 699 952 674T907 608H864Q841 639 815 655T764 672Q751 672 733 663T682 627Q692
615 710 591Q999 228 999 51Q999 -144 878 -268T567 -393Q387 -393 269 -294T150 -47Q150 11 171 63T240 172Q253 189 280 218Q344 287 344 340Q344 381 317 407T248 434Q217 434 188 413T141 354L98 373Z" />
<glyph unicode="G" glyph-name="G" horiz-adv-x="1546" d="M270 793Q311 407 466 203T872 -2Q1056 -2 1174 107T1292 383Q1292 548 1195 662T961 776Q891 776 773 702T567 627Q492 627 422 666T270 793ZM268 865Q353 767 420 723T551 678Q626 678 670 721T715
840Q715 909 653 1045T590 1208Q590 1245 623 1299T723 1421Q699 1428 677 1431T633 1434Q453 1434 362 1290T268 865ZM1169 899Q1303 838 1377 731T1452 489Q1452 250 1287 102T850 -47Q505 -47 300 174T94 764Q94 1083 241 1284T616 1485Q654 1485 690 1479T760
1458Q768 1465 783 1477Q815 1505 831 1518L858 1491Q847 1481 837 1470T809 1436Q845 1416 872 1399T924 1362L895 1323Q871 1346 843 1364T780 1397Q764 1373 756 1352T748 1311Q748 1265 811 1140T874 954Q874 930 853 879T795 762Q852 808 973 852Q1006 864
1022 870Q1122 911 1185 979T1249 1110Q1249 1160 1134 1265Q1107 1290 1092 1305Q1073 1321 1067 1329T1061 1346Q1061 1364 1182 1491L1184 1493L1212 1470Q1211 1468 1209 1465Q1200 1451 1200 1446Q1200 1434 1226 1402T1305 1317Q1314 1307 1330 1291Q1377
1243 1395 1243Q1403 1243 1408 1244T1419 1247L1438 1225Q1382 1181 1304 1064T1169 899Z" />
<glyph unicode="H" glyph-name="H" horiz-adv-x="1399" d="M-35 393Q5 416 46 443T133 506Q201 419 259 378T371 336Q418 336 449 367T481 449Q481 502 392 705Q364 769 348 805Q290 942 274 988T258 1059Q258 1085 280 1131T348 1247Q421 1357 479 1421T563 1485Q589
1485 664 1447T776 1409Q802 1409 826 1424T872 1468L907 1446Q876 1410 827 1353Q742 1253 725 1253Q685 1253 601 1295T496 1337Q468 1337 434 1288T399 1186Q399 1144 420 1083T492 922Q581 988 714 1059T860 1167H901Q915 1149 978 1115T1079 1049Q1178 967
1231 844T1284 571Q1284 367 1174 213T879 0Q791 -27 689 -43T582 -75L545 -66Q528 -22 493 4T416 31Q359 31 321 -15T283 -131Q283 -211 335 -265T465 -319Q515 -319 553 -293T612 -217L655 -238Q623 -301 575 -334T465 -367Q368 -367 302 -299T236 -133Q236 -40
289 24T449 121Q470 127 506 135Q566 149 573 165L608 160Q607 159 607 158T606 152Q606 133 650 98T770 23Q930 43 1028 174T1126 500Q1126 709 1019 846T750 983Q691 983 627 954T506 872Q567 734 595 651T623 524Q623 431 511 347T274 262Q186 262 102 314T-2
367Q-4 367 -8 366T-14 365L-35 393Z" />
<glyph unicode="I" glyph-name="I" horiz-adv-x="1194" d="M352 879L340 831Q210 854 134 933T57 1124Q57 1237 133 1319T356 1446Q378 1452 415 1459Q471 1469 471 1493H516V1491Q516 1471 641 1402Q707 1365 748 1341Q824 1296 857 1282T913 1268Q945 1268 979
1290T1014 1331Q1014 1342 1009 1350T991 1364Q990 1368 989 1373T987 1380Q987 1398 1001 1410T1038 1423Q1061 1423 1075 1406T1090 1360Q1090 1336 1071 1310T1018 1260Q954 1215 877 1182T774 1149Q733 1149 619 1222Q557 1261 520 1282Q474 1309 426 1323T332
1337Q237 1337 171 1275T104 1124Q104 1030 172 963T352 879ZM82 84L37 96Q66 177 117 216T244 256Q276 256 326 247T391 238Q407 238 421 242T449 256L481 238V219Q481 147 547 93T702 39Q800 39 867 101T934 252Q934 313 858 441Q840 471 831 486Q761 608 721
701T680 831Q680 863 708 918T784 1026Q831 1080 885 1111T983 1143Q1023 1143 1045 1124T1067 1071Q1067 1043 1054 1028T1018 1012Q1009 1012 1002 1015T987 1026Q990 1034 990 1037T991 1044Q991 1059 979 1067T944 1075Q896 1075 863 1035T829 934Q829 870
914 714Q927 691 934 678Q948 652 974 605Q1079 412 1079 358Q1079 297 1042 227T938 92Q876 33 794 7T588 -20H553Q500 -20 477 -27T436 -53L397 -35Q383 61 328 123T207 186Q165 186 134 160T82 84Z" />
<glyph unicode="J" glyph-name="J" horiz-adv-x="1194" d="M352 879L340 831Q210 854 134 933T57 1124Q57 1237 133 1319T356 1446Q378 1452 415 1459Q471 1469 471 1493H516V1491Q516 1471 641 1402Q707 1365 748 1341Q824 1296 857 1282T913 1268Q945 1268 979
1290T1014 1331Q1014 1342 1009 1350T991 1364Q990 1368 989 1373T987 1380Q987 1398 1001 1410T1038 1423Q1061 1423 1075 1406T1090 1360Q1090 1336 1071 1310T1018 1260Q954 1215 877 1182T774 1149Q733 1149 619 1222Q557 1261 520 1282Q474 1309 426 1323T332
1337Q237 1337 171 1275T104 1124Q104 1030 172 963T352 879ZM86 -199L43 -186Q71 -107 122 -67T250 -27Q282 -27 332 -36T397 -45Q412 -45 425 -41T453 -27L487 -45Q487 -49 486 -54T485 -63Q485 -136 554 -191T711 -246Q814 -246 877 -192T940 -47Q940 35 841
274Q829 302 823 317Q732 540 697 646T662 799Q662 827 677 865T723 948Q783 1039 853 1091T983 1143Q1023 1143 1045 1124T1067 1071Q1067 1043 1054 1028T1018 1012Q1009 1012 1002 1015T987 1026Q990 1034 990 1037T991 1044Q991 1059 979 1067T944 1075Q892
1075 857 1027T821 903Q821 805 945 514Q977 440 993 399Q1049 268 1072 191T1096 61Q1096 -5 1051 -78T924 -221Q871 -266 788 -284T528 -303Q502 -303 481 -311T442 -336L401 -317Q389 -223 333 -160T211 -96Q169 -96 138 -122T86 -199Z" />
<glyph unicode="K" glyph-name="K" horiz-adv-x="1327" d="M76 -39L39 -16Q45 -1 48 13T51 41Q51 87 40 123T8 184L39 223Q56 215 74 211T115 207Q151 207 176 215T217 242L254 217Q242 192 237 170T231 127Q231 66 268 31T369 -4Q448 -4 488 43T528 184Q528 278
494 382T387 610Q349 677 281 784Q172 955 172 1008Q172 1041 193 1087T258 1194Q360 1336 498 1410T797 1485Q916 1485 1019 1447T1202 1335Q1272 1270 1313 1195T1354 1059Q1354 1025 1337 1007T1286 989Q1273 989 1264 993T1247 1006Q1249 1017 1251 1034Q1255
1066 1255 1075Q1255 1218 1124 1327T809 1436Q617 1436 480 1327T342 1081Q342 1011 570 634Q578 621 581 615L586 616L520 842Q513 868 510 889T506 928Q506 993 548 1038T754 1157Q758 1159 765 1162Q832 1192 858 1229H899Q961 1115 1031 1031T1124 946H1126V903Q1087
881 1026 842T874 739Q927 727 1006 513Q1019 478 1026 459Q1033 439 1048 400Q1155 104 1223 104Q1238 104 1256 110T1296 129L1323 96Q1288 69 1249 35T1160 -44Q1155 -46 1150 -46T1137 -47Q1088 -47 1047 2T958 168Q923 256 872 396Q782 641 733 641Q719 641
686 622T608 567Q634 501 648 432T662 295Q662 130 586 40T373 -51Q323 -51 247 -35T145 -18Q126 -18 110 -23T76 -39ZM623 639L905 819Q925 831 932 841T940 864Q940 877 915 915T848 1006Q814 1046 791 1062T743 1079Q688 1079 620 1028T551 920Q551 904 553
891T559 864L623 639Z" />
<glyph unicode="L" glyph-name="L" horiz-adv-x="1110" d="M20 57Q65 134 114 235T180 336Q188 336 241 320Q264 313 276 309Q339 341 373 383T408 473Q408 542 287 704Q251 753 231 780Q156 886 129 943T102 1047Q102 1084 115 1132T147 1219Q220 1357 330 1426T590
1495Q768 1495 880 1390T993 1120Q993 1068 977 1008T961 938Q961 930 963 923T973 909L946 877Q935 881 923 884T899 887Q834 887 786 852T737 770Q737 733 766 710T842 686Q865 686 889 692T938 711L952 666Q923 653 896 647T844 641Q766 641 723 683T680 801Q680
852 702 905T725 965Q725 971 719 983Q718 985 717 987L749 1007Q760 1005 771 1003T795 1001Q852 1001 891 1044T930 1155Q930 1284 835 1366T590 1448Q442 1448 348 1369T254 1167Q254 1066 383 889Q415 845 432 821Q513 707 535 657T557 559Q557 485 499 418T322
289Q353 274 410 247Q698 113 782 113Q854 113 950 236Q962 252 969 260L1008 233Q963 173 907 107T770 -45Q752 -49 738 -51T713 -53Q650 -53 564 -25T350 68Q277 104 225 123T154 143Q131 143 77 68Q63 48 55 37L20 57Z" />
<glyph unicode="M" glyph-name="M" horiz-adv-x="1939" d="M1231 1260Q1270 1377 1345 1431T1542 1485Q1700 1485 1782 1387T1864 1098Q1864 1072 1864 1060T1862 1037L1884 1036V989Q1746 969 1694 917T1642 723V233Q1642 215 1644 207T1651 192Q1664 170 1706
140T1761 109Q1772 109 1842 158Q1859 170 1868 176L1892 145Q1834 90 1765 25T1686 -49L1644 -48Q1640 -21 1561 28T1481 168V672Q1481 787 1525 845T1704 979V1016Q1704 1209 1651 1285T1470 1362Q1390 1362 1334 1321T1249 1198Q1273 1108 1284 1016T1296 827Q1296
591 1213 391T922 -51H883V-37Q883 -13 826 21T739 55Q731 55 690 11Q678 -2 670 -10L637 12Q716 129 752 171T807 213Q833 213 943 150Q980 129 1001 117Q1071 227 1107 366T1143 666Q1143 980 1061 1184T864 1389Q809 1389 774 1353T727 1247Q770 1151 791 1027T813
758Q813 541 743 375T494 23Q457 -14 447 -27T432 -51H393V-37Q393 -13 336 21T250 55Q242 55 201 12Q188 -2 180 -10L147 12Q226 129 262 171T317 213Q347 213 488 131Q507 120 516 115Q596 192 634 318T672 635Q672 962 578 1145T319 1329Q198 1329 125 1253T51
1049Q51 918 121 826T313 700L293 657Q154 697 76 803T-2 1057Q-2 1237 109 1361T381 1485Q476 1485 560 1436T698 1298Q730 1399 791 1454T932 1509Q1032 1509 1106 1448T1231 1260Z" />
<glyph unicode="N" glyph-name="N" horiz-adv-x="1497" d="M58 -15Q63 -2 65 11T68 41Q68 89 58 125T27 184L55 223Q72 215 90 211T131 207Q167 207 192 215T236 242L270 217Q259 194 254 170T248 125Q248 65 288 31T399 -4Q541 -4 617 165T694 649Q694 972 601
1146T338 1321Q227 1321 156 1243T84 1042Q84 916 154 824T346 700L326 657Q187 697 110 802T33 1057Q33 1233 142 1357T401 1481Q536 1481 630 1410T774 1200Q808 1346 887 1414T1104 1483Q1262 1483 1342 1386T1423 1098Q1423 1073 1423 1060T1421 1037L1446
1036V989Q1308 969 1256 917T1204 723V233Q1204 215 1206 207T1212 193Q1226 169 1268 139T1323 109Q1333 109 1404 158Q1420 170 1430 176L1454 145Q1396 90 1327 25T1247 -49H1206Q1202 -23 1122 27T1042 168V672Q1042 787 1087 845T1266 979V1024Q1266 1210
1212 1286T1032 1362Q938 1362 880 1309T793 1143Q819 1047 832 941T846 723Q846 383 717 166T389 -51Q338 -51 263 -35T162 -18Q142 -18 126 -23T92 -39L58 -15Z" />
<glyph unicode="O" glyph-name="O" horiz-adv-x="1583" d="M33 156Q166 258 222 294T301 330Q324 330 419 279Q425 276 429 274Q462 256 526 222Q774 86 881 86Q955 86 1038 126T1194 238Q1286 328 1333 446T1380 707Q1380 935 1246 1061T833 1223Q809 1226 765
1230Q542 1253 489 1360Q363 1285 307 1222T250 1094Q250 1047 273 994T346 879Q369 849 411 798Q535 649 535 588Q535 510 455 458T252 406Q221 406 196 409T152 420V467Q175 460 197 457T244 453Q303 453 336 475T369 539Q369 577 273 693Q229 747 205 778Q151
847 127 901T102 1008Q102 1094 162 1168T446 1391Q500 1426 525 1457T551 1522V1526L590 1520Q607 1463 655 1436T852 1393Q1014 1375 1101 1346T1260 1266Q1368 1186 1428 1056T1489 772Q1489 607 1420 459T1219 193Q1103 90 955 22T717 -47Q671 -47 605 -22T426
66Q397 81 346 109Q209 184 182 184Q168 184 135 167T63 121L33 156Z" />
<glyph unicode="P" glyph-name="P" horiz-adv-x="1360" d="M616 211L848 127Q869 119 887 115T913 111Q930 111 960 141T1026 223Q1076 296 1103 374T1130 518Q1130 639 988 957Q953 1035 934 1077Q891 1172 875 1227T858 1327Q788 1274 728 1214T616 1083V211ZM504
-397Q480 -277 469 -166T457 51V100Q407 124 369 137T311 150Q289 150 264 129T215 70L182 90L311 348L348 340Q347 334 347 330T346 322Q346 297 402 279Q434 268 455 260V999Q455 1166 401 1251T240 1337Q155 1337 102 1278T49 1124Q49 1025 106 954T262 858L254
811Q139 839 70 927T0 1135Q0 1279 91 1383T311 1487Q440 1487 516 1402T610 1151Q698 1260 804 1345T1034 1491L1059 1458Q1036 1437 1026 1421T1016 1389Q1016 1362 1073 1232Q1102 1166 1118 1127Q1119 1124 1122 1117Q1266 774 1266 645Q1266 522 1207 402T997
113Q977 89 942 51Q874 -23 868 -45H834Q834 -31 753 -2Q669 28 612 53Q606 -52 592 -164T553 -397H504Z" />
<glyph unicode="Q" glyph-name="Q" horiz-adv-x="1583" d="M1028 -16Q1097 31 1182 97T1284 164Q1307 164 1367 133T1448 102Q1462 102 1483 116T1536 160L1567 131L1382 -47Q1381 -47 1377 -48Q1363 -51 1358 -51Q1337 -51 1270 -23T1171 6Q1156 6 1126 -8T1057
-49L1028 -16ZM33 156Q166 258 222 294T301 330Q324 330 419 279Q425 276 429 274Q462 256 526 222Q774 86 881 86Q955 86 1038 126T1194 238Q1286 328 1333 446T1380 707Q1380 935 1246 1061T833 1223Q809 1226 765 1230Q542 1253 489 1360Q363 1285 307 1222T250
1094Q250 1047 273 994T346 879Q369 849 411 798Q535 649 535 588Q535 510 455 458T252 406Q221 406 196 409T152 420V467Q175 460 197 457T244 453Q303 453 336 475T369 539Q369 577 273 693Q229 747 205 778Q151 847 127 901T102 1008Q102 1094 162 1168T446
1391Q500 1426 525 1457T551 1522V1526L590 1520Q607 1463 655 1436T852 1393Q1014 1375 1101 1346T1260 1266Q1368 1186 1428 1056T1489 772Q1489 607 1420 459T1219 193Q1103 90 955 22T717 -47Q671 -47 605 -22T426 66Q397 81 346 109Q209 184 182 184Q168 184
135 167T63 121L33 156Z" />
<glyph unicode="R" glyph-name="R" horiz-adv-x="1475" d="M819 715V670Q819 341 702 145T389 -51Q339 -51 263 -35T162 -18Q142 -18 126 -23T92 -39L58 -15Q63 -2 65 11T68 41Q68 89 58 125T27 184L55 223Q72 215 90 211T131 207Q167 207 192 215T236 242L270
217Q259 193 254 171T248 127Q248 67 285 32T385 -4Q522 -4 594 155T666 621Q666 960 572 1145T307 1331Q210 1331 149 1259T88 1067Q88 926 161 825T358 694L340 649Q198 687 117 808T35 1102Q35 1269 130 1377T369 1485Q488 1485 580 1419T733 1223Q831 1311
976 1393T1151 1501L1178 1470Q1165 1458 1160 1450T1155 1436Q1155 1406 1203 1346T1340 1208Q1355 1195 1368 1189T1395 1182Q1401 1182 1408 1184T1429 1194L1452 1163Q1389 1124 1252 1010Q1176 948 1135 915Q1165 878 1187 803T1243 533Q1247 512 1253 475Q1310
143 1374 143Q1389 143 1407 157T1456 207L1489 180Q1450 126 1391 51T1321 -45H1282Q1280 -33 1230 11T1153 139Q1125 228 1096 423T1042 715Q1028 771 1017 788T987 805Q968 805 926 782T819 715ZM819 775Q1000 877 1088 939T1233 1061L1047 1276Q1027 1299 1009
1311T977 1323Q954 1323 888 1281T750 1174Q782 1092 800 990T819 775Z" />
<glyph unicode="S" glyph-name="S" horiz-adv-x="1593" d="M883 1051Q853 1114 797 1151T676 1188Q591 1188 532 1131T473 991Q473 921 520 875T639 829Q716 829 872 918T1087 1008Q1121 1008 1171 988T1270 934Q1381 856 1438 754T1495 530Q1495 281 1316 116T862
-49Q528 -49 311 163T94 707Q94 863 157 1008T334 1257Q442 1357 593 1424T848 1491Q913 1491 1039 1411Q1067 1393 1081 1384Q1184 1322 1235 1299T1321 1276Q1365 1276 1398 1303T1432 1364Q1432 1382 1416 1402T1399 1438Q1399 1456 1408 1467T1434 1479Q1455
1479 1468 1456T1481 1393Q1481 1352 1467 1321T1425 1266Q1373 1220 1285 1181T1174 1141Q1147 1141 1050 1206Q972 1259 920 1290Q842 1335 793 1350T688 1366Q492 1366 349 1202T205 803Q205 652 264 527T449 293Q552 201 684 150T948 98Q1164 98 1306 218T1448
522Q1448 661 1367 758T1176 856Q1099 856 870 739Q798 702 758 682Q732 669 709 660T680 651Q666 651 620 697Q587 730 566 749Q564 751 558 756Q424 876 424 991Q424 1092 498 1163T674 1235Q751 1235 816 1194T922 1077L883 1051Z" />
<glyph unicode="T" glyph-name="T" horiz-adv-x="1204" d="M1169 240L1196 209Q1083 93 984 23T840 -47Q807 -47 709 2T442 152Q402 176 336 217Q207 299 172 299Q153 299 131 285T76 236L43 258Q135 391 173 430T240 469Q260 469 315 440Q342 426 358 418Q398
407 439 402T526 397Q620 397 679 430T739 512Q739 558 628 642Q584 674 559 694Q480 757 456 794T432 874Q432 948 507 1031T729 1206Q692 1226 625 1262Q433 1368 362 1368Q265 1368 199 1301T133 1135Q133 1076 157 1024T229 928L197 895Q140 947 113 1006T86
1139Q86 1195 107 1245T170 1339Q228 1400 331 1447T498 1495Q531 1495 578 1477T727 1403Q804 1360 925 1290Q1104 1186 1137 1186Q1154 1186 1174 1195T1223 1227L1255 1200Q1208 1162 1145 1101T1063 1040Q1046 1040 997 1063T774 1184Q680 1123 633 1065T586
950Q586 916 608 884T692 801Q713 784 754 754Q883 660 883 582Q883 480 786 417T524 354Q509 354 471 359Q454 361 445 362Q471 346 520 315Q833 121 928 121Q983 121 1038 147T1169 240Z" />
<glyph unicode="U" glyph-name="U" horiz-adv-x="1214" d="M135 117V162Q165 174 177 209T190 322V1204Q190 1244 175 1263T129 1282Q109 1282 93 1278T59 1266L37 1300Q107 1356 152 1406T203 1485L242 1484Q245 1464 297 1432T350 1350V1331V256Q350 248 354
239T365 223L512 109Q522 100 531 96T549 92Q566 92 640 136T862 276V1178Q862 1238 841 1265T769 1300L768 1348Q825 1355 865 1391T924 1485H963Q980 1427 1021 1391T1120 1348V1300Q1069 1293 1047 1265T1024 1178V250Q1024 196 1037 173T1079 150Q1098 150
1121 162T1171 199L1200 166Q1144 124 1093 72T991 -47H948Q948 -45 949 -37T950 -23Q950 -15 924 9T879 59Q870 72 866 89T862 137V199V223Q721 122 573 41T424 -47H381V-41Q381 -13 322 24Q319 26 317 27Q249 70 205 92T145 115Q145 115 142 116T135 117Z" />
<glyph unicode="V" glyph-name="V" horiz-adv-x="1659" d="M684 348Q780 286 924 166T1130 45Q1245 45 1343 125T1442 303Q1442 356 1413 406T1292 549Q1286 555 1273 568Q1122 717 1122 829Q1122 894 1166 929T1403 1020Q1379 1059 1376 1149Q1374 1202 1370
1229Q1356 1318 1297 1371T1151 1425Q1067 1425 1000 1376T887 1233Q923 1153 940 1074T958 913Q958 749 889 607T684 348ZM250 264Q293 280 367 306Q561 377 588 377Q597 377 624 371Q631 369 633 369Q717 436 764 562T811 850Q811 1069 715 1197T455 1325Q311
1325 218 1228T125 981Q125 844 215 750T467 625L455 578Q263 621 170 730T76 1020Q76 1219 196 1352T500 1485Q617 1485 704 1436T860 1284Q917 1386 999 1435T1198 1485Q1356 1485 1440 1411T1540 1184Q1543 1159 1545 1123Q1550 1055 1573 1055H1579V1014Q1426
988 1356 952T1286 862Q1286 828 1313 786T1444 637Q1454 626 1473 607Q1569 509 1569 428Q1569 244 1384 99T948 -47Q895 -47 786 46Q719 103 674 137Q670 140 665 144Q505 266 432 266Q408 266 373 258T268 225L250 264Z" />
<glyph unicode="W" glyph-name="W" horiz-adv-x="2142" d="M1284 283Q1330 256 1411 210Q1638 78 1688 78Q1766 78 1849 152T1933 299Q1933 344 1907 385T1782 512Q1671 609 1635 665T1599 782Q1599 863 1653 918T1819 1008Q1794 1042 1785 1121T1767 1233Q1746
1319 1679 1367T1513 1415Q1405 1415 1324 1341T1243 1161Q1243 1066 1345 882T1448 623Q1448 548 1411 470T1284 283ZM649 328Q721 274 820 179T954 84Q982 84 1064 140T1219 276Q1269 330 1294 383T1319 492Q1319 572 1240 723Q1229 746 1223 758Q1220 762 1216
770Q1116 963 1116 1042Q1116 1086 1128 1130T1167 1229V1257Q1167 1362 1119 1420T983 1479Q920 1479 875 1436T815 1317Q874 1226 902 1128T930 909Q930 722 861 579T649 328ZM299 209Q401 277 473 316T565 356Q574 356 583 355T611 349Q699 428 745 553T791
844Q791 1056 696 1187T451 1319Q303 1319 215 1223T127 967Q127 827 217 733T461 621L451 573Q276 597 177 705T78 981Q78 1190 199 1332T498 1475Q585 1475 655 1445T776 1354Q801 1436 857 1482T991 1528Q1085 1528 1146 1461T1214 1282Q1276 1379 1368 1429T1579
1479Q1734 1479 1827 1401T1946 1171Q1950 1145 1952 1106Q1956 1042 1991 1042V1006Q1862 990 1805 951T1747 840Q1747 796 1779 751T1905 623Q1994 545 2024 495T2054 387Q2054 326 2024 270T1929 156Q1892 123 1843 91T1729 23Q1630 -29 1599 -42T1554 -55Q1525
-55 1441 -11T1159 154Q1067 81 983 30T819 -53Q769 -11 688 60Q510 217 440 217Q420 217 393 206T326 170L299 209Z" />
<glyph unicode="X" glyph-name="X" horiz-adv-x="1165" d="M539 250Q488 96 369 -14Q343 -37 336 -47H297Q291 -22 229 11T129 45Q108 45 89 34T45 -2L16 20L172 217H213Q222 188 293 147T391 106Q436 106 483 228T530 504V690H455Q370 690 325 656T246 530H199Q224
601 246 672T287 817Q303 813 322 811T383 809H451H530V981Q530 1152 473 1242T309 1333Q246 1333 116 1209L115 1208L80 1233L274 1464Q283 1475 298 1480T342 1485Q462 1485 554 1404T664 1196Q705 1319 806 1395T911 1485H950Q971 1453 1032 1415T1110 1376Q1116
1376 1125 1380T1146 1394L1176 1372Q1140 1335 1100 1284T1049 1233Q1033 1233 967 1277T848 1352Q763 1317 723 1216T682 934V809H752Q849 809 889 834T961 934H1004Q974 880 947 818T889 680Q848 685 819 687T766 690H682V434Q682 288 739 204T893 119Q944 119
995 151T1120 266L1155 236L956 41Q947 31 930 15Q884 -29 879 -46H835Q824 -31 780 -18T715 4Q645 34 600 97T539 250Z" />
<glyph unicode="Y" glyph-name="Y" horiz-adv-x="1470" d="M233 285Q465 334 567 453T670 791Q670 1026 570 1176T313 1327Q209 1327 136 1243T63 1036Q63 904 139 817T346 711L340 666Q193 681 104 784T14 1042Q14 1224 128 1354T395 1485Q514 1485 612 1401T768
1165Q854 1268 935 1348T1098 1491L1124 1466Q1119 1457 1116 1447T1112 1430Q1112 1392 1191 1261Q1216 1220 1229 1198Q1299 1078 1334 950T1370 690Q1370 425 1253 172T930 -256Q845 -329 761 -366T598 -403Q494 -403 420 -349T346 -221Q346 -181 372 -155T440
-129Q474 -129 497 -147T520 -190Q520 -211 513 -231T506 -254Q506 -281 544 -304T631 -328Q750 -328 856 -252T1055 -27Q1125 88 1166 248T1208 565Q1208 748 1159 905T958 1305Q892 1238 854 1195T786 1112Q797 1046 802 998T807 909Q807 737 737 598T530 356Q590
310 676 232T793 154Q807 154 833 164T901 197L930 156Q851 109 775 59T627 -43L590 -16Q605 2 611 12T618 27Q618 39 561 94T424 207Q391 230 371 238T328 246Q305 246 284 244T242 238L233 285Z" />
<glyph unicode="Z" glyph-name="Z" horiz-adv-x="1100" d="M109 -422Q75 -396 58 -361T41 -283Q41 -216 80 -174T242 -84Q247 -82 256 -79Q340 -49 340 -27V-23H385Q396 -75 463 -139T575 -203Q681 -203 764 -113T848 106Q848 295 696 442T352 590Q276 590 227
561T178 487Q178 484 179 480T182 465Q168 465 155 462T130 453Q126 455 115 464T97 479Q117 550 178 597T327 657Q261 667 212 697T129 778L166 807Q210 763 270 741T410 719Q580 719 683 808T786 1049Q786 1193 683 1291T420 1389Q296 1389 208 1311T104 1108H57Q76
1282 196 1383T506 1485Q706 1485 830 1377T954 1096Q954 943 854 835T575 688Q755 667 870 539T985 231Q985 36 880 -87T568 -258Q554 -261 530 -266Q433 -286 426 -315H383Q328 -235 285 -197T205 -158Q159 -158 124 -195T88 -285Q88 -314 99 -338T135 -383L109
-422Z" />
<glyph unicode="[" glyph-name="bracketleft" horiz-adv-x="541" d="M137 -238V1436H516V1389H274V-190H516V-238H137Z" />
<glyph unicode="\" glyph-name="backslash" horiz-adv-x="569" d="M537 -190L-49 1485H31L618 -190H537Z" />
<glyph unicode="]" glyph-name="bracketright" horiz-adv-x="541" d="M403 1436V-238H25V-190H266V1389H25V1436H403Z" />
<glyph unicode="^" glyph-name="asciicircum" horiz-adv-x="2048" d="M934 1462H1112L1632 897H1540L1022 1333L502 897H412L934 1462Z" />
<glyph unicode="_" glyph-name="underscore" horiz-adv-x="1024" d="M0 -365H1024V-483H0V-365Z" />
<glyph unicode="`" glyph-name="grave" horiz-adv-x="1024" d="M395 1427L637 1120H588L315 1356Q288 1380 279 1394T268 1425Q268 1447 284 1462T324 1477Q341 1477 357 1466T395 1427Z" />
<glyph unicode="a" glyph-name="a" horiz-adv-x="848" d="M545 776Q489 802 440 833T348 899Q264 836 221 746T178 543Q178 394 244 266T365 137Q372 137 384 143T412 162L545 266V776ZM545 213Q459 145 385 81T246 -47L219 -29Q219 -29 222 -24Q230 -11 229 -8Q229
-2 205 27Q47 216 47 442Q47 694 376 984L406 1010H446L449 999Q498 963 573 925T745 852V813Q707 802 695 780T682 698V274Q682 207 702 170T758 133Q767 133 777 141T813 178L844 154L678 -47L647 -31L662 -8Q588 50 567 90T545 195V213Z" />
<glyph unicode="b" glyph-name="b" horiz-adv-x="819" d="M274 229V219Q274 199 279 190T297 174L433 106Q438 103 447 101T465 98Q482 98 509 127T578 215Q617 273 634 318T651 408Q651 523 507 753Q462 826 438 866L274 754V229ZM90 90V131Q117 135 127 151T137
231V1208Q137 1240 129 1269T100 1331L129 1352Q154 1327 168 1301T188 1243Q219 1341 288 1391T463 1442V1399Q360 1393 317 1335T274 1137V807L571 1010L594 983Q583 974 578 966T573 950Q573 942 579 931T600 899Q610 883 631 853Q772 643 772 524Q772 403 682
270T383 -47H344Q344 -22 271 19T90 90Z" />
<glyph unicode="c" glyph-name="c" horiz-adv-x="645" d="M324 -47L299 -33L313 -8Q200 60 160 126T119 317V666Q119 729 129 753T168 805L362 985Q374 997 384 1003T401 1010Q429 1010 478 964T549 918Q559 918 582 931L584 932L610 909L508 813Q497 803 489
799T475 795Q470 795 458 802T428 821L330 895L301 870Q276 848 266 824T256 752V381Q256 320 260 291T272 246Q293 207 337 175T414 143Q434 143 465 163T567 248L598 223Q494 122 435 63T324 -47Z" />
<glyph unicode="d" glyph-name="d" horiz-adv-x="819" d="M274 219L457 121Q463 117 470 115T485 113Q530 113 594 239T659 508Q659 643 595 736T371 920L309 879Q290 866 282 852T274 811V774V219ZM137 338V823Q159 825 179 842Q183 846 186 848L323 942Q321
944 315 948Q63 1108 63 1233Q63 1326 127 1384T295 1442V1399H279Q232 1399 200 1373T168 1307Q168 1265 204 1225T342 1122Q361 1110 399 1087Q772 857 772 618Q772 455 686 298T406 -47H371Q367 -5 279 45T68 121V162Q107 176 122 204T137 322V338Z" />
<glyph unicode="e" glyph-name="e" horiz-adv-x="721" d="M256 741V389L506 592Q510 595 513 601T516 614Q516 617 515 621T506 639L360 893Q289 841 273 815T256 741ZM627 242L651 217L373 -47L346 -31L352 -14Q227 40 173 113T119 301V600Q119 624 118 655T117
694Q117 728 125 744T160 782L428 1010H473L647 705Q652 697 654 690T657 676Q657 669 655 663T647 651L260 338Q270 253 323 198T444 143Q486 143 530 167T627 242Z" />
<glyph unicode="f" glyph-name="f" horiz-adv-x="487" d="M291 811L289 543Q289 418 273 163T227 -397H184Q161 -90 149 165T137 627V811H41V858Q119 881 154 1075Q166 1141 174 1178Q200 1298 261 1370T393 1442Q430 1442 478 1431T535 1419Q545 1419 552 1424T565
1440L602 1425L518 1253Q476 1284 431 1299T338 1315Q288 1315 260 1285T231 1200Q231 1154 258 1063T293 930H487V811H291Z" />
<glyph unicode="g" glyph-name="g" horiz-adv-x="844" d="M551 277Q549 300 548 328T547 412Q547 513 559 595T598 741Q544 756 478 791T344 879Q262 803 221 712T180 514Q180 382 253 270T385 158Q394 158 403 162T431 181L551 277ZM557 229L250 -20L211 -10Q212
-7 213 -3Q217 11 217 18Q217 44 187 84Q180 93 176 98Q103 198 75 272T47 428Q47 560 115 679T414 1010H453Q453 1009 452 1008T451 1006Q451 980 539 931T748 848V809Q713 758 698 685T682 496Q682 355 702 260T768 98Q768 87 769 72T770 53Q770 -144 662 -270T383
-397Q240 -397 150 -325T45 -127L168 -126Q170 -236 229 -296T393 -356Q505 -356 584 -275T664 -96Q664 -81 617 25T557 229Z" />
<glyph unicode="h" glyph-name="h" horiz-adv-x="815" d="M76 115Q109 119 123 137T137 197V252V1208Q137 1240 129 1269T100 1331L129 1352Q154 1327 168 1301T188 1243Q219 1341 288 1391T463 1442V1399Q360 1393 317 1335T274 1137V768L537 1010L561 989Q558
981 557 976T555 967Q555 951 572 932Q576 928 578 925Q686 790 727 691T768 479Q768 307 665 85T358 -403L322 -379Q479 -164 562 30T645 373Q645 495 592 610T424 846L274 711V231Q274 193 279 177T296 154L330 135L422 213L449 182Q376 110 330 50T272 -47H233Q225
-16 179 22T76 78V115Z" />
<glyph unicode="i" glyph-name="i" horiz-adv-x="469" d="M190 1165Q193 1179 197 1203Q242 1460 326 1460Q359 1460 377 1443T395 1395Q395 1366 367 1325T227 1165H190ZM268 -47L236 -31L244 -12Q193 27 178 52T162 119Q162 145 164 187T166 244V711Q166 762
159 780T135 799Q122 799 108 791T70 760L43 786Q94 836 142 891T240 1010L268 991Q261 978 257 966T252 948Q252 929 294 899T346 868Q347 868 352 866T362 862V817Q328 810 316 789T303 709V219Q303 186 317 164T350 141Q360 141 375 152T416 190L446 160Q399
113 354 62T268 -47Z" />
<glyph unicode="j" glyph-name="j" horiz-adv-x="440" d="M166 236V711Q166 762 159 780T135 799Q122 799 108 791T70 760L43 786Q94 836 142 891T240 1010L268 991Q261 978 257 966T252 948Q252 930 281 907T362 862V817Q328 810 316 789T303 709V172Q303 120
312 65T338 -47H299Q284 -4 278 18T266 59Q251 -36 206 -151T86 -397H39Q106 -275 136 -131T166 236ZM190 1165Q193 1179 197 1203Q242 1460 326 1460Q359 1460 377 1443T395 1395Q395 1366 367 1325T227 1165H190Z" />
<glyph unicode="k" glyph-name="k" horiz-adv-x="768" d="M455 868L274 745V436L467 561Q510 588 528 613T547 672Q547 706 508 771T455 868ZM274 231Q274 190 279 177T296 154L336 129L383 172L410 143Q337 61 309 21T272 -47H233Q225 -16 179 22T76 78V115Q109
119 123 137T137 197V252V1208Q137 1240 129 1269T100 1331L129 1352Q154 1327 168 1301T188 1243Q219 1341 288 1391T463 1442V1399Q360 1393 317 1335T274 1137V797L592 1010L608 983Q600 971 596 962T592 946Q592 937 635 867T678 743Q678 700 646 659T514 543Q593
487 650 230Q660 184 666 160L700 137L739 170L768 145Q753 127 722 89Q647 -2 612 -47L584 -33L592 -12Q527 46 512 166Q507 208 502 233Q486 310 461 364T395 465L274 387V231Z" />
<glyph unicode="l" glyph-name="l" horiz-adv-x="440" d="M274 231Q274 191 279 179T297 158L344 129Q354 124 359 123T371 121Q378 121 386 124T405 135L477 186L506 156L254 -47L227 -31L238 -16V-14Q238 2 193 28T76 78V115Q109 119 123 137T137 197V252V1208Q137
1240 129 1269T100 1331L129 1352Q154 1327 168 1301T188 1243Q219 1341 288 1391T463 1442V1399Q360 1393 317 1335T274 1137V231Z" />
<glyph unicode="m" glyph-name="m" horiz-adv-x="1341" d="M303 682V213Q303 160 320 132T373 98L372 57Q328 48 299 21T256 -51H213Q199 -6 170 21T97 57L96 98Q132 104 149 132T166 213V725Q166 770 157 789T123 829L76 784L43 811L217 1010L250 987Q245 980
243 973T240 958Q240 947 258 926T285 893Q300 870 301 796Q302 762 303 742L524 954Q545 975 553 986T565 1009L600 1010V1006Q600 985 651 943Q668 928 677 920Q717 886 728 856T739 770V741L1006 1010H1040Q1061 964 1116 926T1222 883L1223 842Q1199 831 1188
809T1176 750V201Q1176 167 1185 150T1212 133Q1227 133 1242 145T1270 178L1303 156L1145 -51L1112 -31L1126 -8Q1069 30 1052 55T1034 119Q1034 148 1036 199T1038 272V745Q1038 780 998 817T936 854Q925 854 910 845T877 817L739 682V213Q739 160 756 132T809
98L808 57Q764 48 735 21T692 -51H649Q636 -6 607 21T533 57L532 98Q568 104 585 132T602 213V745Q602 779 563 816T504 854Q494 854 480 846T444 817L303 682Z" />
<glyph unicode="n" glyph-name="n" horiz-adv-x="909" d="M303 680V213Q303 160 320 132T373 98L372 57Q328 48 299 21T256 -51H213Q199 -6 170 21T97 57L96 98Q132 104 149 132T166 213V723Q166 768 157 787T123 827L76 782L43 809L217 1010L250 987L240 973Q238
971 237 968T236 956Q236 951 248 939Q305 886 305 782Q305 766 305 757T303 742L565 1010H608Q640 956 692 920T790 881L791 842Q767 831 755 809T743 750V201Q743 167 752 150T780 133Q795 133 810 145T838 178L870 156L711 -51L680 -31L692 -8Q635 30 618 55T600
119Q600 147 603 198T606 272V745Q606 780 565 816T502 852Q491 852 478 844T444 815L303 680Z" />
<glyph unicode="o" glyph-name="o" horiz-adv-x="811" d="M403 895L274 842V199Q310 181 366 152Q464 102 481 102Q518 102 578 201T639 403Q639 538 500 742Q433 839 403 895ZM571 1010L592 973L561 956Q581 913 672 773T764 520Q764 330 462 1Q433 -31 418 -47H377Q369
-12 302 20T90 90V131Q116 139 126 175T137 301V653Q137 708 135 749T127 827L571 1010Z" />
<glyph unicode="p" glyph-name="p" horiz-adv-x="844" d="M299 201Q405 143 441 126T489 109Q530 109 607 224T684 432Q684 536 538 755Q493 823 469 860L299 737V201ZM252 -397H209Q197 -281 188 -166T172 63Q163 67 157 68T143 70Q128 70 111 61T78 33L45 53L162
217V594Q162 673 157 707T139 762Q130 777 104 809T78 860Q78 885 154 994Q179 1030 193 1051L229 1030Q219 1011 215 1000T211 981Q211 957 255 903T299 799V788L602 1010L633 979L604 958Q619 917 708 790T797 555Q797 408 601 156Q499 25 457 -47H418Q413 -30
381 -11T287 35Q274 -115 266 -210T252 -397Z" />
<glyph unicode="q" glyph-name="q" horiz-adv-x="815" d="M545 212Q459 145 385 81T246 -47L219 -29Q219 -29 222 -24Q230 -11 229 -8Q229 -2 205 27Q47 216 47 442Q47 694 376 984L406 1010H446Q488 970 560 930T729 852V813Q684 796 678 379T633 -397H590Q574
-283 552 92Q547 172 545 212ZM545 776Q489 802 440 833T348 899Q264 836 221 746T178 543Q178 394 244 266T365 137Q372 137 384 143T412 162L545 266V776Z" />
<glyph unicode="r" glyph-name="r" horiz-adv-x="616" d="M166 719Q166 765 156 783T117 823L70 782L43 809L86 859Q181 971 215 1010L248 989Q244 980 242 972T240 958Q240 945 271 910T303 827V768Q339 829 397 907T459 1010H494Q501 971 523 935T586 860V807Q562
781 543 750T508 682H469Q457 717 438 750T387 821L344 756Q321 721 312 695T303 616V207Q303 191 307 183T319 168L373 129Q382 123 389 120T403 117Q411 117 417 119T428 127L532 217L563 186L324 -47L291 -33L299 -18Q252 23 200 54T92 106V143Q132 148 149
171T166 244V719Z" />
<glyph unicode="s" glyph-name="s" horiz-adv-x="786" d="M199 248Q230 225 284 185Q416 86 451 86Q508 86 569 148T631 285Q631 372 557 451T434 530Q426 530 418 524T397 502L199 248ZM344 504L553 770Q463 775 383 826T291 877Q268 877 228 837T188 768Q188
744 249 662T344 504ZM59 145V184Q126 214 173 276T221 391Q221 442 145 548T68 694Q68 715 80 737T121 791Q214 889 283 949T371 1010Q376 1010 404 989Q503 915 571 915Q633 915 666 946T700 1036Q700 1104 664 1149T573 1194Q533 1194 508 1167T473 1088Q449
1108 429 1120T387 1139Q408 1190 450 1218T547 1247Q628 1247 685 1186T743 1036Q743 995 726 950T676 862L526 670Q628 617 682 541T737 377Q737 289 690 214T551 78Q527 63 480 38Q389 -10 356 -47H319Q313 -21 249 27T59 145Z" />
<glyph unicode="t" glyph-name="t" horiz-adv-x="494" d="M109 68V106Q142 114 154 133T166 213V242V811H63V858Q134 906 190 993T305 1235H348Q326 1148 315 1072T303 930H485V811H303V170L350 135Q358 129 364 126T377 123Q383 123 388 125T401 133L459 178L483
150Q433 104 384 54T287 -51L252 -37L260 -14Q215 17 179 37T109 68Z" />
<glyph unicode="u" glyph-name="u" horiz-adv-x="905" d="M299 -47L270 -35Q271 -30 271 -26T272 -20Q272 -4 150 52Q131 61 121 65V109Q147 115 156 135T166 227V729Q166 769 156 790T117 834L78 799L45 825L205 1010L235 993Q232 987 230 982T227 975Q227 964
251 943T287 905Q296 893 299 876T303 825V778V229Q303 195 307 183T322 166L373 137Q382 132 389 130T403 127Q425 127 481 169T602 281V750Q602 802 585 829T532 862V905Q577 914 606 940T649 1010H692Q707 966 736 940T809 905V862Q773 856 756 829T739 750V207Q739
172 746 156T768 139Q779 139 794 153T827 195L860 168Q808 104 714 -7L680 -47L651 -31L664 -12Q628 11 614 38T600 119Q600 131 601 163T602 217Q534 153 428 68T299 -47Z" />
<glyph unicode="v" glyph-name="v" horiz-adv-x="840" d="M299 184L467 102Q471 100 476 99T487 98Q528 98 599 204T670 434Q670 527 621 638T479 862L299 711V184ZM162 205V604Q162 669 110 738T57 834Q57 860 91 918T188 1055L221 1040Q209 1017 203 997T197
958Q197 915 244 856T299 766L586 1010H618V993V983Q618 966 705 823T793 549Q793 319 472 8Q435 -28 416 -47H373Q316 0 252 30T115 76V117Q143 122 152 138T162 205Z" />
<glyph unicode="w" glyph-name="w" horiz-adv-x="1229" d="M711 170L873 92Q876 90 879 89T889 88Q926 88 992 194T1059 412Q1059 516 1017 620T877 858L711 711V170ZM532 1010H565V993Q565 972 626 907T702 762L983 1010H1016V975Q1016 942 1098 806T1180 539Q1180
300 832 -45L829 -47H786Q748 -16 681 12T528 61V102Q556 108 564 123T573 190V604Q573 704 540 771T465 838Q450 838 430 828T395 803L299 709V213Q299 160 316 132T369 98L368 57Q324 48 295 22T252 -47H209Q195 -4 166 22T93 57L92 98Q128 104 145 132T162 213V604Q162
686 118 753T74 840Q74 867 105 927T188 1055L221 1040Q213 1016 209 1000T205 973Q205 942 249 875T295 764L532 1010Z" />
<glyph unicode="x" glyph-name="x" horiz-adv-x="829" d="M162 -43Q141 5 119 42T70 111V154Q90 180 110 211T147 274H184Q197 240 213 211T250 156Q287 229 318 298T377 434L268 690Q255 722 240 749T209 793L170 838L115 780L82 811L262 1014L289 987L281 958Q335
913 385 779Q395 753 399 742L446 623Q499 731 544 823T633 999H674Q686 954 705 920T754 856V813Q730 782 713 751T682 682H645Q634 709 619 738T582 799Q556 753 529 698T469 571L614 229Q633 185 651 160T682 135Q690 135 704 146T737 180L766 158Q721 102 680
49T600 -57L569 -39L581 -12Q569 -8 553 17T520 84L403 383Q356 277 304 171T195 -43H162Z" />
<glyph unicode="y" glyph-name="y" horiz-adv-x="840" d="M162 231V651Q162 735 118 782T74 848Q74 870 106 923T203 1061L238 1042Q229 1022 225 1009T221 985Q221 961 260 899T299 780V768L561 1010L585 990Q583 982 582 976T580 967Q580 951 597 932Q601 927
602 926Q711 790 752 691T793 479Q793 307 690 85T383 -403L346 -379Q503 -164 586 30T670 373Q670 495 616 610T449 846L299 711V209Q299 174 311 155T344 135L430 193L457 162Q349 65 312 25T260 -47H221Q200 -10 171 19T100 72V113Q137 119 149 138T162 231Z"
/>
<glyph unicode="z" glyph-name="z" horiz-adv-x="578" d="M256 240Q164 160 120 74T76 -115Q76 -216 125 -282T250 -348Q315 -348 354 -287T393 -121Q393 -24 358 68T256 240ZM231 272Q212 297 183 322T111 373V410Q218 466 272 532T326 674Q326 736 293 778T213
821Q183 821 162 811T106 764L74 791L281 1044L315 1024Q311 1017 309 1012T307 999Q307 993 389 938T471 791Q471 727 425 653T276 475Q329 429 353 405T391 360Q413 373 438 384T494 406L506 367Q481 357 459 346T416 324Q463 253 485 173T508 -4Q508 -176 437
-286T256 -397Q157 -397 95 -319T33 -115Q33 -2 83 96T231 272Z" />
<glyph unicode="{" glyph-name="braceleft" horiz-adv-x="1024" d="M846 1516L845 1464Q704 1463 652 1410T600 1200V1057Q600 831 539 749T313 635Q478 604 539 522T600 213V70Q600 -86 651 -138T845 -193L846 -244H836Q619 -244 538 -171T457 102V315Q457 473
398 533T176 606V666Q341 681 399 740T457 956V1169Q457 1369 538 1442T836 1516H846Z" />
<glyph unicode="|" glyph-name="bar" horiz-adv-x="1024" d="M449 1565H575V-483H449V1565Z" />
<glyph unicode="}" glyph-name="braceright" horiz-adv-x="1024" d="M178 1516H188Q404 1516 485 1442T567 1169V956Q567 799 625 740T848 666V606Q685 593 626 533T567 315V102Q567 -96 486 -170T188 -244H178L179 -193Q321 -191 372 -139T424 70V213Q424 439
485 521T711 635Q546 666 485 748T424 1057V1200Q424 1356 372 1409T179 1464L178 1516Z" />
<glyph unicode="~" glyph-name="asciitilde" horiz-adv-x="1706" d="M1530 758V627Q1429 555 1333 519T1143 483Q1100 483 1053 492T952 518Q922 528 865 549Q663 621 563 621Q480 621 390 584T178 461V594Q283 667 380 703T565 739Q621 739 681 727T856 674Q868
670 891 661Q1055 602 1145 602Q1230 602 1321 638T1530 758Z" />
</font>
</defs>
</svg>
